<?xml version="1.0" encoding="UTF-8"?>
<svg version="1.1" xmlns="http://www.w3.org/2000/svg" width="888" height="255">
<path d="M0 0 C0.9075 0.721875 1.815 1.44375 2.75 2.1875 C0.9510497 7.26384826 -1.74026455 11.82463611 -4.375 16.5 C-5.07689453 17.75393555 -5.07689453 17.75393555 -5.79296875 19.03320312 C-6.9426259 21.08616233 -8.09503802 23.13752202 -9.25 25.1875 C-13.0882853 23.72158661 -16.71584392 21.99126131 -20.375 20.125 C-28.67781252 15.89077267 -36.70344531 14.6216094 -45.9609375 16.8359375 C-52.47059694 19.43535782 -56.58415973 23.51410864 -59.46875 29.875 C-64.26720447 42.48808033 -65.33698651 56.47003373 -60.25 69.1875 C-56.73157796 76.53353875 -52.36431446 82.73566226 -44.87890625 86.32421875 C-39.52592137 88.08203399 -33.53968275 88.11311643 -28.3125 86 C-21.69513127 80.18473657 -20.37078784 74.67065136 -18.25 66.1875 C-28.81 66.1875 -39.37 66.1875 -50.25 66.1875 C-50.25 57.9375 -50.25 49.6875 -50.25 41.1875 C-30.45 41.1875 -10.65 41.1875 9.75 41.1875 C10.43605668 81.32181549 10.84576854 121.42400052 10.8125 161.5625 C10.81164398 162.60269791 10.81078796 163.64289581 10.80990601 164.71461487 C10.79856384 177.53892747 10.77855943 190.36321454 10.75 203.1875 C9.43 203.1875 8.11 203.1875 6.75 203.1875 C5.76 200.7125 5.76 200.7125 4.75 198.1875 C4.09 198.1875 3.43 198.1875 2.75 198.1875 C1.76 195.7125 1.76 195.7125 0.75 193.1875 C0.09 193.1875 -0.57 193.1875 -1.25 193.1875 C-1.25 192.1975 -1.25 191.2075 -1.25 190.1875 C-1.91 190.1875 -2.57 190.1875 -3.25 190.1875 C-4.24 187.7125 -4.24 187.7125 -5.25 185.1875 C-5.91 185.1875 -6.57 185.1875 -7.25 185.1875 C-8.24 182.7125 -8.24 182.7125 -9.25 180.1875 C-9.91 180.1875 -10.57 180.1875 -11.25 180.1875 C-12.24 177.7125 -12.24 177.7125 -13.25 175.1875 C-13.91 175.1875 -14.57 175.1875 -15.25 175.1875 C-16.24 172.7125 -16.24 172.7125 -17.25 170.1875 C-17.91 170.1875 -18.57 170.1875 -19.25 170.1875 C-19.25 146.7575 -19.25 123.3275 -19.25 99.1875 C-21.725 102.1575 -21.725 102.1575 -24.25 105.1875 C-34.37959292 113.12159072 -43.51512727 115.34390161 -56.25 114.1875 C-68.88393533 111.64045233 -78.80644201 105.79949714 -86.25 95.1875 C-94.08171798 81.43883277 -96.82078568 67.60156352 -96.6875 51.8125 C-96.67992676 50.54680176 -96.67235352 49.28110352 -96.66455078 47.97705078 C-96.36451401 30.90999547 -92.53032148 15.99055342 -80.5 3.25390625 C-59.83838027 -15.72178271 -22.56725771 -15.96441277 0 0 Z " fill="#ADBD72" transform="translate(148.25,30.8125)"/>
<path d="M0 0 C1.94891899 -0.01913956 1.94891899 -0.01913956 3.93721008 -0.03866577 C5.36593477 -0.04172617 6.79466145 -0.04395246 8.22338867 -0.04541016 C9.69154489 -0.05184056 11.15969984 -0.05856911 12.62785339 -0.06558228 C15.71563679 -0.07758041 18.80330821 -0.08126131 21.89111328 -0.08007812 C25.81358884 -0.0798766 29.73532616 -0.10699185 33.65762806 -0.14162254 C36.69749615 -0.16408545 39.73719334 -0.16790955 42.77713585 -0.16685867 C44.22057284 -0.1691928 45.66401616 -0.17789037 47.10737038 -0.19352341 C58.69692821 -0.30712916 70.89280595 0.67756502 80.11791992 8.48193359 C89.48301376 18.38156475 91.49910422 31.38367758 91.17260742 44.57958984 C90.12231774 55.91794434 86.18926289 64.89892536 77.46948242 72.29052734 C68.68539923 78.8376701 59.67165544 81.43453925 48.77807617 81.38818359 C48.11926956 81.38676865 47.46046295 81.3853537 46.7816925 81.38389587 C44.6931998 81.37833235 42.60481731 81.36578681 40.51635742 81.35302734 C39.09383294 81.34800762 37.67130676 81.34344554 36.2487793 81.33935547 C32.77543665 81.32837492 29.30215781 81.3111357 25.82885742 81.29052734 C25.89959473 82.36995605 25.97033203 83.44938477 26.04321289 84.56152344 C27.03672739 101.33361979 26.98254137 118.10452456 26.95922852 134.89892578 C26.95344724 139.12535019 26.95687834 143.35171224 26.96280098 147.57813454 C26.96640474 150.85686724 26.96527032 154.13558495 26.96267319 157.41431808 C26.96200775 158.97484723 26.96281892 160.53537776 26.96515274 162.0959053 C26.9676853 164.25798461 26.96383402 166.41995974 26.95825195 168.58203125 C26.95745636 169.80886627 26.95666077 171.03570129 26.95584106 172.29971313 C26.82885742 175.29052734 26.82885742 175.29052734 25.82885742 178.29052734 C25.16885742 178.29052734 24.50885742 178.29052734 23.82885742 178.29052734 C23.56073242 178.86802734 23.29260742 179.44552734 23.01635742 180.04052734 C21.79956553 182.34602777 20.52551863 184.31108927 18.82885742 186.29052734 C18.16885742 186.29052734 17.50885742 186.29052734 16.82885742 186.29052734 C16.82885742 186.95052734 16.82885742 187.61052734 16.82885742 188.29052734 C16.16885742 188.29052734 15.50885742 188.29052734 14.82885742 188.29052734 C14.56073242 189.05365234 14.29260742 189.81677734 14.01635742 190.60302734 C12.87751237 193.18041352 12.01469072 194.56007599 9.82885742 196.29052734 C9.16885742 196.29052734 8.50885742 196.29052734 7.82885742 196.29052734 C7.82885742 196.95052734 7.82885742 197.61052734 7.82885742 198.29052734 C7.16885742 198.29052734 6.50885742 198.29052734 5.82885742 198.29052734 C5.56073242 199.05365234 5.29260742 199.81677734 5.01635742 200.60302734 C3.87751237 203.18041352 3.01469072 204.56007599 0.82885742 206.29052734 C0.16885742 206.29052734 -0.49114258 206.29052734 -1.17114258 206.29052734 C-1.50114258 207.28052734 -1.83114258 208.27052734 -2.17114258 209.29052734 C-3.49114258 208.96052734 -4.81114258 208.63052734 -6.17114258 208.29052734 C-6.30526992 200.34154139 -6.43576047 192.3925057 -6.56229401 184.44339561 C-6.62122653 180.74739133 -6.68115868 177.05141056 -6.74389648 173.35546875 C-7.35733331 137.09443204 -7.20492364 100.85805684 -6.70758057 64.59631348 C-6.64540187 60.02175285 -6.58615919 55.44715409 -6.52661133 50.87255859 C-6.41086699 42.0118431 -6.29180916 33.15117717 -6.17114258 24.29052734 C-12.44114258 24.29052734 -18.71114258 24.29052734 -25.17114258 24.29052734 C-21.33249351 19.10316373 -17.40184586 13.99419838 -13.42114258 8.91552734 C-12.69544067 7.98716064 -12.69544067 7.98716064 -11.95507812 7.04003906 C-6.45624597 0.0429269 -6.45624597 0.0429269 0 0 Z M25.82885742 24.29052734 C25.82885742 34.85052734 25.82885742 45.41052734 25.82885742 56.29052734 C31.08823242 56.38333984 31.08823242 56.38333984 36.45385742 56.47802734 C37.54778809 56.50533936 38.64171875 56.53265137 39.76879883 56.56079102 C46.19500508 56.61561006 50.42702911 55.9438052 55.62182617 51.89208984 C58.55707627 47.99742143 58.9642111 42.55235857 58.68041992 37.81005859 C57.7587168 32.61895705 56.20080105 29.49661934 51.82885742 26.29052734 C46.10719069 24.19063175 40.94066932 24.04686191 34.89135742 24.16552734 C30.40541992 24.22740234 30.40541992 24.22740234 25.82885742 24.29052734 Z " fill="#F17136" transform="translate(733.171142578125,22.70947265625)"/>
<path d="M0 0 C11.84213124 11.51101902 16.9737656 27.71326917 17.625 43.9375 C17.68494141 44.96810547 17.68494141 44.96810547 17.74609375 46.01953125 C18.30397124 63.70752932 13.58827565 82.29515894 1.5625 95.6875 C-6.42980573 103.01527694 -16.79036705 107.93634283 -27.375 109.9375 C-28.2825 110.11925781 -29.19 110.30101562 -30.125 110.48828125 C-48.82634001 113.07320204 -67.08432779 110.09233905 -82.78515625 99.27734375 C-94.11851217 90.04033112 -100.41769932 76.207801 -102.375 61.9375 C-102.66627006 57.49589203 -102.70002122 53.07504079 -102.6875 48.625 C-102.70361328 47.49126953 -102.71972656 46.35753906 -102.73632812 45.18945312 C-102.74533169 29.38818952 -98.55001015 13.34513249 -87.30078125 1.671875 C-63.68131738 -19.60001538 -24.51982156 -20.13324797 0 0 Z M-62.75 20.0625 C-71.27540066 31.07548215 -71.59734452 46.33484433 -69.9140625 59.55859375 C-68.22349526 68.00148544 -65.11416509 74.29421094 -58.9375 80.3125 C-51.38842927 85.09971558 -45.29506907 85.74019316 -36.375 84.9375 C-30.2978906 83.24387935 -25.4083463 79.76567765 -21.375 74.9375 C-14.57768871 62.26596908 -13.07958876 46.74067736 -16.5625 32.75 C-19.14098857 25.00254131 -23.36841891 18.36419308 -30.375 13.9375 C-41.85598099 9.32927177 -54.04314985 11.05167005 -62.75 20.0625 Z " fill="#ADBE73" transform="translate(365.375,34.0625)"/>
<path d="M0 0 C1.48628741 0.00103888 2.97257759 -0.000003 4.4588623 -0.00302124 C7.57618204 -0.00284195 10.69246581 0.01796119 13.80957031 0.05419922 C17.76909811 0.09926044 21.72709298 0.10071895 25.68680573 0.08716393 C28.76022503 0.08041281 31.83330715 0.09388182 34.90666199 0.11342239 C36.36401086 0.12102836 37.82139764 0.12346436 39.27876282 0.1202507 C50.89218572 0.11597372 63.10784725 1.13662067 72.37890625 8.8984375 C81.51562062 18.63871614 82.61920064 29.7541632 82.328125 42.44140625 C81.8692611 52.87606129 77.62093303 58.57188511 70.09375 65.7265625 C65.21971401 69.7265625 65.21971401 69.7265625 62.09375 69.7265625 C66.02492744 80.29562971 70.4263188 90.63170353 74.90625 100.9765625 C75.94384537 103.37493473 76.98067699 105.77362472 78.01530457 108.17327881 C78.65341171 109.65309897 79.29325512 111.13217192 79.93501282 112.6104126 C82.09375 117.61419976 82.09375 117.61419976 82.09375 118.7265625 C70.54375 118.7265625 58.99375 118.7265625 47.09375 118.7265625 C44.52692622 112.78314315 41.96230431 106.83887465 39.40332031 100.89208984 C38.53157417 98.86809162 37.65853082 96.8446516 36.78417969 94.82177734 C35.52980993 91.91909177 34.28007324 89.01445037 33.03125 86.109375 C32.63752197 85.20099884 32.24379395 84.29262268 31.83813477 83.35671997 C31.47776123 82.51599945 31.1173877 81.67527893 30.74609375 80.80908203 C30.26644165 79.69655563 30.26644165 79.69655563 29.77709961 78.56155396 C29.09375 76.7265625 29.09375 76.7265625 29.09375 74.7265625 C25.13375 74.7265625 21.17375 74.7265625 17.09375 74.7265625 C17.09375 89.2465625 17.09375 103.7665625 17.09375 118.7265625 C6.86375 118.7265625 -3.36625 118.7265625 -13.90625 118.7265625 C-13.90625 87.7065625 -13.90625 56.6865625 -13.90625 24.7265625 C-20.17625 24.7265625 -26.44625 24.7265625 -32.90625 24.7265625 C-31.47997579 21.87401407 -30.39291941 19.89417327 -28.48046875 17.484375 C-28.01318359 16.89269531 -27.54589844 16.30101562 -27.06445312 15.69140625 C-26.33645508 14.78068359 -26.33645508 14.78068359 -25.59375 13.8515625 C-25.12001953 13.25214844 -24.64628906 12.65273438 -24.15820312 12.03515625 C-22.7493922 10.25824289 -21.33599588 8.4867014 -19.90625 6.7265625 C-19.33044189 5.67919922 -18.75463379 4.63183594 -18.16137695 3.55273438 C-13.83317376 -1.56340803 -6.11265303 -0.08427744 0 0 Z M17.09375 24.7265625 C17.09375 33.3065625 17.09375 41.8865625 17.09375 50.7265625 C32.76151199 51.72276115 32.76151199 51.72276115 47.09375 46.6640625 C49.77243926 42.72973764 50.3770568 39.45111997 50.09375 34.7265625 C48.86481324 31.03975223 47.82982055 29.30348266 44.78125 26.9140625 C38.82729607 24.28324565 32.60038401 24.60207826 26.21875 24.6640625 C23.2075 24.6846875 20.19625 24.7053125 17.09375 24.7265625 Z " fill="#F17136" transform="translate(514.90625,22.2734375)"/>
<path d="M0 0 C1.60149426 0.03516028 3.20306287 0.06709101 4.8046875 0.09570312 C8.70497872 0.17235979 12.6016617 0.29286987 16.5 0.4375 C25.27126227 23.26466569 33.69267169 46.21779831 42.10244751 69.18005371 C44.64392816 76.11492353 47.20143612 83.0436958 49.76953125 89.96875 C50.42931234 91.75006962 51.08906256 93.53140068 51.7487793 95.31274414 C52.67936272 97.82522658 53.6109614 100.33730496 54.54605103 102.84811401 C55.39028169 105.11515984 56.23069341 107.38358681 57.0703125 109.65234375 C57.44389641 110.65019897 57.44389641 110.65019897 57.82502747 111.66821289 C59.5 116.20997771 59.5 116.20997771 59.5 118.4375 C48.94 118.4375 38.38 118.4375 27.5 118.4375 C22.5 106.4375 22.5 106.4375 21.5 102.4375 C12.26 102.4375 3.02 102.4375 -6.5 102.4375 C-4.50896412 99.11910686 -2.85970008 96.50285362 -0.43359375 93.625 C0.13423828 92.94179687 0.70207031 92.25859375 1.28710938 91.5546875 C2.47231744 90.14130407 3.65982679 88.72984728 4.84960938 87.3203125 C5.41615234 86.63710937 5.98269531 85.95390625 6.56640625 85.25 C7.3389978 84.33154297 7.3389978 84.33154297 8.12719727 83.39453125 C9.78135896 81.03640211 10.79070431 79.24839363 11.5 76.4375 C10.76930669 73.094964 10.76930669 73.094964 9.2890625 69.60546875 C8.91858292 68.6505529 8.91858292 68.6505529 8.5406189 67.67634583 C7.75124331 65.65258203 6.93862978 63.6391184 6.125 61.625 C5.58437594 60.25126456 5.04529533 58.87692063 4.5078125 57.50195312 C3.18968437 54.13990066 1.85056108 50.7866762 0.5 47.4375 C-4.3077188 58.28554136 -8.08054149 69.47650489 -11.9375 80.6875 C-13.22523096 84.42278965 -14.51545347 88.15720454 -15.80859375 91.890625 C-16.11936859 92.78801392 -16.43014343 93.68540283 -16.75033569 94.60998535 C-19.53269207 102.60575194 -22.48867311 110.52520369 -25.5 118.4375 C-36.06 118.4375 -46.62 118.4375 -57.5 118.4375 C-55.25003872 108.31267423 -55.25003872 108.31267423 -53.59570312 103.71948242 C-53.22771606 102.68937546 -52.859729 101.65926849 -52.48059082 100.59794617 C-52.08480835 99.50730362 -51.68902588 98.41666107 -51.28125 97.29296875 C-50.86387573 96.12913162 -50.44650146 94.96529449 -50.01647949 93.76618958 C-48.68273202 90.05061073 -47.34156057 86.33776403 -46 82.625 C-45.12970403 80.20525944 -44.25990837 77.78533889 -43.390625 75.36523438 C-41.65215047 70.52696019 -39.91096849 65.68967301 -38.16796875 60.85302734 C-33.91993489 49.05693664 -29.71139541 37.24670961 -25.5 25.4375 C-31.44 25.1075 -37.38 24.7775 -43.5 24.4375 C-39.78550036 20.72300036 -36.04797408 17.11542144 -32.1875 13.5625 C-31.39182617 12.82580078 -31.39182617 12.82580078 -30.58007812 12.07421875 C-29.47541994 11.05555192 -28.35819456 10.05037571 -27.22998047 9.05786133 C-25.4474525 7.45825861 -25.4474525 7.45825861 -23.91455078 5.51049805 C-17.43183523 -1.67947248 -8.89892763 -0.34008057 0 0 Z " fill="#F17339" transform="translate(657.5,22.5625)"/>
<path d="M0 0 C0.78043167 0.01797638 1.56086334 0.03595276 2.36494446 0.05447388 C3.60940086 0.05337868 3.60940086 0.05337868 4.8789978 0.05226135 C7.61749467 0.05574104 10.35428434 0.09461878 13.09248352 0.13381958 C14.99247814 0.14314638 16.89248479 0.15026312 18.79249573 0.15525818 C23.7905148 0.17433844 28.78780601 0.22344822 33.78553772 0.27877808 C38.88645074 0.32994832 43.98748151 0.35276747 49.08857727 0.37796021 C59.09545875 0.43156613 69.1016092 0.51951054 79.10810852 0.62210083 C76.46810852 8.54210083 73.82810852 16.46210083 71.10810852 24.62210083 C56.25810852 24.62210083 41.40810852 24.62210083 26.10810852 24.62210083 C26.10810852 32.21210083 26.10810852 39.80210083 26.10810852 47.62210083 C37.32810852 47.62210083 48.54810852 47.62210083 60.10810852 47.62210083 C59.4290989 51.69615855 58.87981193 54.64630632 57.47920227 58.36428833 C57.05659119 59.49906616 57.05659119 59.49906616 56.6254425 60.6567688 C56.26909729 61.59407837 55.91275208 62.53138794 55.54560852 63.49710083 C54.41123352 66.50835083 53.27685852 69.51960083 52.10810852 72.62210083 C43.52810852 72.62210083 34.94810852 72.62210083 26.10810852 72.62210083 C26.10810852 80.21210083 26.10810852 87.80210083 26.10810852 95.62210083 C45.24810852 95.62210083 64.38810852 95.62210083 84.10810852 95.62210083 C81.68497839 103.69920127 78.94434605 111.68063574 76.10810852 119.62210083 C49.37810852 119.62210083 22.64810852 119.62210083 -4.89189148 119.62210083 C-4.89189148 88.27210083 -4.89189148 56.92210083 -4.89189148 24.62210083 C-11.16189148 24.62210083 -17.43189148 24.62210083 -23.89189148 24.62210083 C-22.06095927 21.57054715 -20.49325355 18.9672602 -18.33329773 16.24710083 C-17.86472351 15.65413208 -17.39614929 15.06116333 -16.91337585 14.45022583 C-16.19117859 13.54530396 -16.19117859 13.54530396 -15.45439148 12.62210083 C-14.97679382 12.01881958 -14.49919617 11.41553833 -14.00712585 10.79397583 C-12.63885056 9.06720865 -11.2667181 7.34365583 -9.89189148 5.62210083 C-9.37297836 4.77223099 -8.85406525 3.92236115 -8.31942749 3.04673767 C-5.5099951 0.24066055 -3.89846696 0.03717962 0 0 Z " fill="#ACBC70" transform="translate(178.8918914794922,22.377899169921875)"/>
<path d="M0 0 C0.84948212 0.0143811 1.69896423 0.02876221 2.57418823 0.0435791 C3.92083809 0.04270294 3.92083809 0.04270294 5.29469299 0.04180908 C8.26560983 0.04459844 11.2355265 0.07573066 14.20626831 0.10705566 C16.26463777 0.11451502 18.32301433 0.12020939 20.38139343 0.12420654 C25.80179414 0.13948684 31.22176682 0.1787895 36.64199829 0.22302246 C42.17182627 0.26392341 47.70172333 0.2822065 53.23165894 0.30236816 C64.08406064 0.34528126 74.93614452 0.41356172 85.78829956 0.49768066 C85.20107748 4.19960813 84.54836172 7.53607016 83.15939331 11.02111816 C82.87765259 11.73703125 82.59591187 12.45294434 82.30563354 13.19055176 C81.94928833 14.0756543 81.59294312 14.96075684 81.22579956 15.87268066 C80.09142456 18.71893066 78.95704956 21.56518066 77.78829956 24.49768066 C67.88829956 24.49768066 57.98829956 24.49768066 47.78829956 24.49768066 C47.78829956 55.51768066 47.78829956 86.53768066 47.78829956 118.49768066 C37.22829956 118.49768066 26.66829956 118.49768066 15.78829956 118.49768066 C15.78829956 87.47768066 15.78829956 56.45768066 15.78829956 24.49768066 C2.58829956 24.49768066 -10.61170044 24.49768066 -24.21170044 24.49768066 C-22.66201199 21.39830377 -21.42235163 19.34505792 -19.27810669 16.74768066 C-18.42829224 15.71127441 -18.42829224 15.71127441 -17.56130981 14.65393066 C-16.67669067 13.58658691 -16.67669067 13.58658691 -15.77420044 12.49768066 C-14.60819469 11.08154167 -13.44281022 9.66489086 -12.27810669 8.24768066 C-11.76191772 7.62377441 -11.24572876 6.99986816 -10.71389771 6.35705566 C-9.14545508 4.55128616 -9.14545508 4.55128616 -8.16693115 2.40985107 C-5.58887432 -0.11142887 -3.50082208 0.02473551 0 0 Z " fill="#F17238" transform="translate(401.2117004394531,22.5023193359375)"/>
<path d="M0 0 C1.77218729 0.04235793 3.54424443 0.09038445 5.31616211 0.14282227 C6.24698105 0.16643326 7.17779999 0.19004425 8.13682556 0.21437073 C11.12253311 0.29120977 14.10799434 0.37514647 17.09350586 0.45922852 C19.11237384 0.51242896 21.131254 0.56516947 23.15014648 0.61743164 C28.1105902 0.74685216 33.07082419 0.88264032 38.03100586 1.02172852 C38.03100586 5.64172852 38.03100586 10.26172852 38.03100586 15.02172852 C28.79100586 15.02172852 19.55100586 15.02172852 10.03100586 15.02172852 C10.03100586 17.33172852 10.03100586 19.64172852 10.03100586 22.02172852 C10.74232666 22.00601807 11.45364746 21.99030762 12.18652344 21.97412109 C15.4054369 21.91180937 18.62422354 21.87274984 21.84350586 21.83422852 C22.96305664 21.8090918 24.08260742 21.78395508 25.23608398 21.75805664 C26.30922852 21.74838867 27.38237305 21.7387207 28.48803711 21.72875977 C29.47779541 21.71304932 30.46755371 21.69733887 31.48730469 21.68115234 C34.03100586 22.02172852 34.03100586 22.02172852 35.81494141 23.35253906 C39.32064535 28.16452418 38.29563652 34.72899864 38.34350586 40.39672852 C38.37250977 41.53368164 38.40151367 42.67063477 38.43139648 43.84204102 C38.43977539 44.94032227 38.4481543 46.03860352 38.45678711 47.17016602 C38.47136963 48.17225098 38.48595215 49.17433594 38.50097656 50.20678711 C37.88727176 53.88263977 36.75652625 55.4983407 34.03100586 58.02172852 C31.28881836 58.60522461 31.28881836 58.60522461 28.15600586 58.54516602 C27.00487305 58.53356445 25.85374023 58.52196289 24.66772461 58.51000977 C23.46760742 58.47262695 22.26749023 58.43524414 21.03100586 58.39672852 C19.86182617 58.38254883 18.69264648 58.36836914 17.48803711 58.35375977 C9.96559496 58.22852488 2.5208213 57.71819001 -4.96899414 57.02172852 C-4.96899414 52.40172852 -4.96899414 47.78172852 -4.96899414 43.02172852 C4.27100586 43.02172852 13.51100586 43.02172852 23.03100586 43.02172852 C23.03100586 41.04172852 23.03100586 39.06172852 23.03100586 37.02172852 C13.79100586 37.02172852 4.55100586 37.02172852 -4.96899414 37.02172852 C-4.9919031 31.91303041 -5.01183016 26.80450926 -5.02392578 21.69580078 C-5.02896618 19.95653684 -5.03579844 18.21727715 -5.04443359 16.47802734 C-5.05651206 13.98346915 -5.06222522 11.48896678 -5.06665039 8.99438477 C-5.07181168 8.21209 -5.07697296 7.42979523 -5.08229065 6.62379456 C-5.0824864 4.75605737 -5.03099108 2.88843647 -4.96899414 1.02172852 C-3.96899414 0.02172852 -3.96899414 0.02172852 0 0 Z " fill="#1E2126" transform="translate(610.968994140625,157.978271484375)"/>
<path d="M0 0 C1.62589058 0.01515187 3.25172285 0.03758629 4.87744141 0.06567383 C5.73455719 0.07979813 6.59167297 0.09392242 7.47476196 0.10847473 C9.29231571 0.14165474 11.10981363 0.17801964 12.92724609 0.21728516 C15.71015656 0.27233227 18.4925864 0.30099005 21.27587891 0.3293457 C23.03893356 0.36481192 24.80195707 0.40186912 26.56494141 0.44067383 C27.39939789 0.44503952 28.23385437 0.44940521 29.09359741 0.4539032 C34.78819708 0.62199898 34.78819708 0.62199898 37.3762207 2.74072266 C39.45916452 7.73510704 38.82204636 13.25971192 38.79150391 18.58520508 C38.82147461 20.43952148 38.82147461 20.43952148 38.85205078 22.33129883 C38.85140625 23.51852539 38.85076172 24.70575195 38.85009766 25.92895508 C38.8528772 27.55607422 38.8528772 27.55607422 38.85571289 29.21606445 C38.22611907 32.81654455 37.3249539 33.98688768 34.35400391 36.08520508 C31.69677734 36.53930664 31.69677734 36.53930664 28.71337891 36.47583008 C27.10849609 36.45649414 27.10849609 36.45649414 25.47119141 36.43676758 C24.36001953 36.40325195 23.24884766 36.36973633 22.10400391 36.33520508 C20.41404297 36.30813477 20.41404297 36.30813477 18.68994141 36.28051758 C15.91043495 36.2334073 13.13265051 36.16763868 10.35400391 36.08520508 C10.35400391 38.39520508 10.35400391 40.70520508 10.35400391 43.08520508 C19.59400391 43.08520508 28.83400391 43.08520508 38.35400391 43.08520508 C38.84900391 50.51020508 38.84900391 50.51020508 39.35400391 58.08520508 C34.21281277 58.11003806 29.07165704 58.12812785 23.93041992 58.14013672 C22.18366894 58.14514637 20.43692211 58.15195593 18.69018555 58.16064453 C16.17056245 58.17285827 13.6509951 58.1784672 11.13134766 58.18286133 C10.35814682 58.18802261 9.58494598 58.1931839 8.78831482 58.19850159 C4.20473063 58.19896928 -0.12375871 57.84196628 -4.64599609 57.08520508 C-4.72028634 52.74360669 -4.77466351 48.40234738 -4.81079102 44.06030273 C-4.82585533 42.58400017 -4.84631092 41.1077422 -4.87231445 39.6315918 C-4.90880348 37.5066425 -4.92574542 35.38228607 -4.93896484 33.25708008 C-4.95467529 31.97929687 -4.97038574 30.70151367 -4.98657227 29.38500977 C-4.62464898 25.87837524 -4.1535884 24.5102746 -1.64599609 22.08520508 C6.06816424 19.5138183 15.40448047 21.00730359 23.35400391 22.08520508 C23.35400391 19.77520508 23.35400391 17.46520508 23.35400391 15.08520508 C14.11400391 15.08520508 4.87400391 15.08520508 -4.64599609 15.08520508 C-4.64599609 0.10857457 -4.64599609 0.10857457 0 0 Z " fill="#202227" transform="translate(235.64599609375,157.914794921875)"/>
<path d="M0 0 C1.58359711 0.02195695 3.16710764 0.05078964 4.75048828 0.08496094 C5.58540802 0.10145691 6.42032776 0.11795288 7.2805481 0.13494873 C9.05102817 0.17251959 10.821447 0.21307457 12.59179688 0.25634766 C15.30217328 0.318906 18.01236693 0.36043676 20.72314453 0.40136719 C22.44062256 0.44042946 24.15807247 0.48075271 25.87548828 0.52246094 C26.68807098 0.53198792 27.50065369 0.54151489 28.33786011 0.55133057 C34.02235734 0.72413094 34.02235734 0.72413094 36.14108276 2.4513855 C40.06812479 7.32121889 38.42367511 15.35937212 38.19580078 21.19433594 C38.15519531 22.83982422 38.15519531 22.83982422 38.11376953 24.51855469 C38.07380859 25.56914062 38.03384766 26.61972656 37.99267578 27.70214844 C37.94385254 29.13905029 37.94385254 29.13905029 37.89404297 30.60498047 C37.44580078 33.06933594 37.44580078 33.06933594 36.27172852 34.88647461 C33.67980509 36.56555858 31.75501054 36.4090701 28.68408203 36.36230469 C27.56582031 36.35263672 26.44755859 36.34296875 25.29541016 36.33300781 C24.12816406 36.30787109 22.96091797 36.28273437 21.75830078 36.25683594 C20.57945312 36.24330078 19.40060547 36.22976562 18.18603516 36.21582031 C15.27216667 36.1804292 12.35921133 36.13105403 9.44580078 36.06933594 C9.44580078 38.37933594 9.44580078 40.68933594 9.44580078 43.06933594 C18.68580078 43.06933594 27.92580078 43.06933594 37.44580078 43.06933594 C38.5408657 46.35453069 38.54540687 48.80597009 38.50830078 52.25683594 C38.49927734 53.34351563 38.49025391 54.43019531 38.48095703 55.54980469 C38.46935547 56.38125 38.45775391 57.21269531 38.44580078 58.06933594 C33.2862991 58.09413757 28.12683247 58.11224402 22.96728516 58.12426758 C21.21369827 58.12928245 19.46011554 58.13609596 17.70654297 58.14477539 C15.17951428 58.15696594 12.65254111 58.16259282 10.12548828 58.16699219 C9.34712616 58.17215347 8.56876404 58.17731476 7.76681519 58.18263245 C3.54540588 58.18306314 -0.3951131 57.90520234 -4.55419922 57.06933594 C-4.67799167 52.5853829 -4.76862493 48.10233992 -4.82885742 43.6171875 C-4.85397025 42.09227164 -4.88806805 40.56747578 -4.93139648 39.04296875 C-4.99219966 36.84833167 -5.02043809 34.65528784 -5.04248047 32.45996094 C-5.06866455 31.1402832 -5.09484863 29.82060547 -5.12182617 28.4609375 C-4.55419922 25.06933594 -4.55419922 25.06933594 -2.22583008 22.6340332 C1.14680041 20.65878064 3.30838607 20.6315748 7.19580078 20.75683594 C9.03271484 20.80904297 9.03271484 20.80904297 10.90673828 20.86230469 C15.12271539 21.10893469 19.26246944 21.49232472 23.44580078 22.06933594 C23.44580078 19.75933594 23.44580078 17.44933594 23.44580078 15.06933594 C14.20580078 15.06933594 4.96580078 15.06933594 -4.55419922 15.06933594 C-4.55419922 0.08884411 -4.55419922 0.08884411 0 0 Z " fill="#1A1D22" transform="translate(483.55419921875,157.9306640625)"/>
<path d="M0 0 C1.56234375 -0.01836914 1.56234375 -0.01836914 3.15625 -0.03710938 C4.16429687 -0.03904297 5.17234375 -0.04097656 6.2109375 -0.04296875 C7.1292334 -0.04707764 8.0475293 -0.05118652 8.99365234 -0.05541992 C13.01245049 0.31558622 15.76475035 1.32725035 18.625 4.1875 C18.88569641 6.26132202 18.88569641 6.26132202 18.8996582 8.84912109 C18.91395622 10.30105362 18.91395622 10.30105362 18.92854309 11.78231812 C18.92763168 12.83126251 18.92672028 13.88020691 18.92578125 14.9609375 C18.93006638 16.03622711 18.9343515 17.11151672 18.93876648 18.21939087 C18.94451774 20.49749039 18.94500421 22.77560828 18.94067383 25.05371094 C18.93751914 28.54133477 18.96094554 32.02810647 18.98632812 35.515625 C18.98860154 37.72656143 18.98930442 39.93750014 18.98828125 42.1484375 C18.997491 43.19333344 19.00670074 44.23822937 19.01618958 45.31478882 C19.00996078 46.28904816 19.00373199 47.2633075 18.99731445 48.26708984 C18.99794388 49.12265472 18.9985733 49.9782196 18.9992218 50.85971069 C18.53746776 53.73198087 17.61505858 55.08893126 15.625 57.1875 C10.7812941 58.80206863 5.82239017 58.41365798 0.75 58.4375 C-0.88388672 58.4684375 -0.88388672 58.4684375 -2.55078125 58.5 C-3.60394531 58.50515625 -4.65710938 58.5103125 -5.7421875 58.515625 C-6.70237793 58.5249707 -7.66256836 58.53431641 -8.65185547 58.54394531 C-11.96378541 58.11043108 -13.78068778 57.29068662 -16.375 55.1875 C-18.16999281 50.58550227 -17.55613958 44.88975067 -17.578125 39.99609375 C-17.58382507 39.01383316 -17.58952515 38.03157257 -17.59539795 37.01954651 C-17.60482365 34.94769359 -17.61137225 32.87582584 -17.61523438 30.80395508 C-17.62497631 27.63271211 -17.65603734 24.46210766 -17.6875 21.29101562 C-17.69402706 19.27604551 -17.6992787 17.26107077 -17.703125 15.24609375 C-17.7154718 14.2981041 -17.7278186 13.35011444 -17.74053955 12.37339783 C-17.73753845 11.48890457 -17.73453735 10.60441132 -17.73144531 9.69311523 C-17.73509094 8.91765854 -17.73873657 8.14220184 -17.74249268 7.34324646 C-17.27172775 4.58169531 -16.27615579 3.22072211 -14.375 1.1875 C-9.6725989 -0.37996703 -4.92465157 0.00302497 0 0 Z M-2.375 15.1875 C-2.375 24.4275 -2.375 33.6675 -2.375 43.1875 C-0.395 43.1875 1.585 43.1875 3.625 43.1875 C3.955 33.9475 4.285 24.7075 4.625 15.1875 C2.315 15.1875 0.005 15.1875 -2.375 15.1875 Z " fill="#212429" transform="translate(375.375,157.8125)"/>
<path d="M0 0 C0.33 0 0.66 0 1 0 C1 60.39 1 120.78 1 183 C1.99 183 2.98 183 4 183 C4.12375 182.4225 4.2475 181.845 4.375 181.25 C5.00648824 178.97664233 5.88858191 177.0746471 7 175 C7.66 175 8.32 175 9 175 C9.2475 174.21625 9.495 173.4325 9.75 172.625 C11.22323763 169.53120098 12.04143731 169.43445464 15 168 C16.04644066 166.36209288 17.0398183 164.68991979 18 163 C19.57212216 160.87212765 21.21599668 158.96697802 23 157 C23.66 157 24.32 157 25 157 C25 156.34 25 155.68 25 155 C25.81139938 154.32153519 26.62279877 153.64307037 27.45878601 152.94404602 C30.94106088 148.90976259 30.71173191 146.05983961 30.65942383 140.89526367 C30.67514938 139.53354538 30.67514938 139.53354538 30.69119263 138.14431763 C30.71993123 135.15185316 30.71365243 132.16054644 30.70703125 129.16796875 C30.72014698 127.0900172 30.73545082 125.0120784 30.75285339 122.93415833 C30.79273062 117.47117396 30.80289564 112.0085229 30.80688477 106.54541016 C30.816211 100.96832145 30.8536214 95.391429 30.88867188 89.81445312 C30.95327559 78.87631127 30.9864929 67.93831594 31 57 C31.33 57 31.66 57 32 57 C33.17063663 74.8635416 33.15520837 92.71581995 33.13037109 110.60839844 C33.12458982 114.83482285 33.12802092 119.0611849 33.13394356 123.28760719 C33.13754732 126.56633989 33.1364129 129.84505761 33.13381577 133.12379074 C33.13315033 134.68431989 33.1339615 136.24485041 33.13629532 137.80537796 C33.13882788 139.96745727 33.1349766 142.1294324 33.12939453 144.29150391 C33.12859894 145.51833893 33.12780334 146.74517395 33.12698364 148.00918579 C33 151 33 151 32 154 C31.34 154 30.68 154 30 154 C29.731875 154.5775 29.46375 155.155 29.1875 155.75 C27.97070811 158.05550043 26.69666121 160.02056192 25 162 C24.34 162 23.68 162 23 162 C23 162.66 23 163.32 23 164 C22.34 164 21.68 164 21 164 C20.731875 164.763125 20.46375 165.52625 20.1875 166.3125 C19.04865495 168.88988618 18.18583329 170.26954864 16 172 C15.34 172 14.68 172 14 172 C14 172.66 14 173.32 14 174 C13.34 174 12.68 174 12 174 C11.731875 174.763125 11.46375 175.52625 11.1875 176.3125 C10.04865495 178.88988618 9.18583329 180.26954864 7 182 C6.34 182 5.68 182 5 182 C4.67 182.99 4.34 183.98 4 185 C2.68 184.67 1.36 184.34 0 184 C-0.13412735 176.05101405 -0.26461789 168.10197836 -0.39115143 160.15286827 C-0.45008395 156.45686399 -0.51001611 152.76088321 -0.57275391 149.06494141 C-1.18619073 112.8039047 -1.03378106 76.56752949 -0.53643799 40.30578613 C-0.47425929 35.73122551 -0.41501661 31.15662674 -0.35546875 26.58203125 C-0.23972442 17.72131619 -0.12094056 8.86064566 0 0 Z " fill="#FAD1BE" transform="translate(727,47)"/>
<path d="M0 0 C0.33 0 0.66 0 1 0 C1.18158368 9.74975901 1.3462449 19.49976709 1.5 29.25 C1.51781588 30.37898083 1.51781588 30.37898083 1.53599167 31.53076935 C1.99792511 61.14566551 2.08704882 90.75685267 2.0625 120.375 C2.06164398 121.41519791 2.06078796 122.45539581 2.05990601 123.52711487 C2.04856384 136.35142747 2.02855943 149.17571454 2 162 C0.68 162 -0.64 162 -2 162 C-2.99 159.525 -2.99 159.525 -4 157 C-4.66 157 -5.32 157 -6 157 C-6.99 154.525 -6.99 154.525 -8 152 C-8.66 152 -9.32 152 -10 152 C-10 151.01 -10 150.02 -10 149 C-10.66 149 -11.32 149 -12 149 C-12.99 146.525 -12.99 146.525 -14 144 C-14.66 144 -15.32 144 -16 144 C-16.99 141.525 -16.99 141.525 -18 139 C-18.66 139 -19.32 139 -20 139 C-20.99 136.525 -20.99 136.525 -22 134 C-22.66 134 -23.32 134 -24 134 C-24.99 131.525 -24.99 131.525 -26 129 C-26.66 129 -27.32 129 -28 129 C-28 109.53 -28 90.06 -28 70 C-27.67 70 -27.34 70 -27 70 C-26.67 88.81 -26.34 107.62 -26 127 C-25.34 127 -24.68 127 -24 127 C-24 127.66 -24 128.32 -24 129 C-23.34 129 -22.68 129 -22 129 C-22 129.99 -22 130.98 -22 132 C-21.34 132 -20.68 132 -20 132 C-20 132.66 -20 133.32 -20 134 C-19.34 134 -18.68 134 -18 134 C-18 134.99 -18 135.98 -18 137 C-17.34 137 -16.68 137 -16 137 C-16 137.66 -16 138.32 -16 139 C-15.01 139.33 -14.02 139.66 -13 140 C-11.9375 141.77734375 -11.9375 141.77734375 -11 143.9375 C-9.57626295 147.20616298 -9.12562542 147.91624972 -6 150 C-4.22470656 152.66294015 -3.01431642 154.95705074 -2 158 C-1.01 158 -0.02 158 1 158 C0.98747192 157.08246948 0.97494385 156.16493896 0.96203613 155.21960449 C0.80064866 143.31316156 0.6472758 131.40662585 0.5 119.5 C0.48218412 118.06028461 0.48218412 118.06028461 0.46400833 116.59148407 C0.11192906 87.93539415 -0.09388916 59.28329921 -0.0625 30.625 C-0.06164398 29.83765472 -0.06078796 29.05030945 -0.05990601 28.23910522 C-0.04887929 18.82604462 -0.02939695 9.41302273 0 0 Z " fill="#EEF1E2" transform="translate(157,72)"/>
<path d="M0 0 C0.66 0 1.32 0 2 0 C2 20.79 2 41.58 2 63 C1.01 63 0.02 63 -1 63 C-3.1875 60 -3.1875 60 -5 57 C-3.35 57.66 -1.7 58.32 0 59 C0 39.53 0 20.06 0 0 Z " fill="#C2CE97" transform="translate(156,167)"/>
<path d="M0 0 C0.33 0 0.66 0 1 0 C1.02315348 9.46620178 1.04093046 18.93239384 1.05181217 28.39861774 C1.0570344 32.79399426 1.06412013 37.18935142 1.07543945 41.5847168 C1.08629171 45.82517373 1.09228182 50.06561203 1.09487724 54.30608177 C1.09672726 55.92522665 1.1003398 57.5443705 1.10573006 59.16350746 C1.11297148 61.42844485 1.11398962 63.69330489 1.11352539 65.95825195 C1.115746 67.24842728 1.11796661 68.5386026 1.12025452 69.86787415 C1 73 1 73 0 76 C-0.66 76 -1.32 76 -2 76 C-2.66 77.32 -3.32 78.64 -4 80 C-4 76.79604584 -3.25664978 74.90600261 -2 72 C-1.34 72 -0.68 72 0 72 C0 48.24 0 24.48 0 0 Z " fill="#FEF6F2" transform="translate(759,125)"/>
<path d="M0 0 C0.99 0 1.98 0 3 0 C4.53515625 1.71484375 4.53515625 1.71484375 6.0625 3.9375 C8.06958135 6.99278157 8.06958135 6.99278157 11 9 C13.0095568 11.93704456 14 13.39222485 14 17 C13.01 16.67 12.02 16.34 11 16 C9.8125 13.4375 9.8125 13.4375 9 11 C8.34 11 7.68 11 7 11 C7 10.01 7 9.02 7 8 C6.34 8 5.68 8 5 8 C4.34 6.35 3.68 4.7 3 3 C2.34 3 1.68 3 1 3 C0.67 2.01 0.34 1.02 0 0 Z " fill="#F4F6ED" transform="translate(140,213)"/>
<path d="M0 0 C0 3.69418201 -1.28179295 5.77836178 -3 9 C-3.66 9 -4.32 9 -5 9 C-5.33 9.66 -5.66 10.32 -6 11 C-6.66 11 -7.32 11 -8 11 C-9.36161311 11.96113866 -10.69855198 12.95884159 -12 14 C-10.32598022 10.04322598 -7.86850715 7.15535787 -5 4 C-4.34 4 -3.68 4 -3 4 C-3 3.34 -3 2.68 -3 2 C-2.01 1.34 -1.02 0.68 0 0 Z " fill="#FACEBA" transform="translate(755,200)"/>
<path d="M0 0 C0.66 0.33 1.32 0.66 2 1 C-0.31 3.31 -2.62 5.62 -5 8 C1.93 8.495 1.93 8.495 9 9 C9 9.33 9 9.66 9 10 C2.73 10 -3.54 10 -10 10 C-6.66666667 6.66666667 -3.33333333 3.33333333 0 0 Z " fill="#F49163" transform="translate(624,37)"/>
<path d="M0 0 C0.66 0.33 1.32 0.66 2 1 C-2.29 5.29 -6.58 9.58 -11 14 C-11 9.40845608 -8.09282279 7.18698368 -5 4 C-3.3719908 2.61973133 -1.71956118 1.26438322 0 0 Z " fill="#C7D29F" transform="translate(285,30)"/>
<path d="M0 0 C0.33 0.99 0.66 1.98 1 3 C-0.56048888 6.12097775 -2.29780559 8.76775245 -5 11 C-5.66 11 -6.32 11 -7 11 C-7.33 11.66 -7.66 12.32 -8 13 C-7.48118887 8.8275894 -6.28848726 6.74583179 -3.4375 3.6875 C-2.79683594 2.99011719 -2.15617188 2.29273438 -1.49609375 1.57421875 C-1.00238281 1.05472656 -0.50867188 0.53523437 0 0 Z " fill="#FDF1EB" transform="translate(748,208)"/>
<path d="M0 0 C0.66 0 1.32 0 2 0 C2 0.66 2 1.32 2 2 C2.66 2 3.32 2 4 2 C4 2.99 4 3.98 4 5 C4.66 5 5.32 5 6 5 C6 5.66 6 6.32 6 7 C6.99 7.33 7.98 7.66 9 8 C9.6875 10.0625 9.6875 10.0625 10 12 C9.34 11.67 8.68 11.34 8 11 C8 10.34 8 9.68 8 9 C6.68 9 5.36 9 4 9 C4 8.34 4 7.68 4 7 C3.34 6.67 2.68 6.34 2 6 C1.27306096 4.02111039 0.60183749 2.02045442 0 0 Z " fill="#DCE3C4" transform="translate(135,204)"/>
<path d="M0 0 C0.66 0 1.32 0 2 0 C2 0.66 2 1.32 2 2 C2.66 2 3.32 2 4 2 C4 2.66 4 3.32 4 4 C4.66 4 5.32 4 6 4 C6 4.66 6 5.32 6 6 C4.02 5.34 2.04 4.68 0 4 C0 2.68 0 1.36 0 0 Z " fill="#E7ECD6" transform="translate(129,197)"/>
</svg>
